<?xml version="1.0" encoding="UTF-8" standalone="no"?>
<!-- Created with Inkscape (http://www.inkscape.org/) -->

<svg
   width="210mm"
   height="194.5mm"
   viewBox="0 0 210 194.5"
   version="1.1"
   id="svg1"
   inkscape:version="1.3.2 (091e20e, 2023-11-25)"
   sodipodi:docname="logo.svg"
   inkscape:export-filename="logo.jpg"
   inkscape:export-xdpi="96"
   inkscape:export-ydpi="96"
   xmlns:inkscape="http://www.inkscape.org/namespaces/inkscape"
   xmlns:sodipodi="http://sodipodi.sourceforge.net/DTD/sodipodi-0.dtd"
   xmlns="http://www.w3.org/2000/svg"
   xmlns:svg="http://www.w3.org/2000/svg">
  <sodipodi:namedview
     id="namedview1"
     pagecolor="#ffffff"
     bordercolor="#000000"
     borderopacity="0.25"
     inkscape:showpageshadow="2"
     inkscape:pageopacity="0.0"
     inkscape:pagecheckerboard="0"
     inkscape:deskcolor="#d1d1d1"
     inkscape:document-units="mm"
     showgrid="true"
     showguides="false"
     inkscape:zoom="0.5328753"
     inkscape:cx="216.74865"
     inkscape:cy="409.10134"
     inkscape:window-width="1440"
     inkscape:window-height="745"
     inkscape:window-x="0"
     inkscape:window-y="25"
     inkscape:window-maximized="0"
     inkscape:current-layer="layer2">
    <inkscape:grid
       id="grid3"
       units="mm"
       originx="0"
       originy="0"
       spacingx="0.99999998"
       spacingy="1"
       empcolor="#0099e5"
       empopacity="0.30196078"
       color="#0099e5"
       opacity="0.14901961"
       empspacing="5"
       dotted="false"
       gridanglex="30"
       gridanglez="30"
       visible="true"
       snapvisiblegridlinesonly="true" />
  </sodipodi:namedview>
  <defs
     id="defs1" />
  <g
     inkscape:label="Layer 1"
     inkscape:groupmode="layer"
     id="layer1" />
  <g
     inkscape:groupmode="layer"
     id="layer2"
     inkscape:label="Layer 2">
    <path
       id="path1"
       style="fill:#1b1166;stroke-width:1.01083"
       d="M 105.0215 0.92914225 A 45.84565 45.84565 0 0 0 59.175716 46.774923 A 45.84565 45.84565 0 0 0 105.0215 92.620703 A 45.84565 45.84565 0 0 0 150.86728 46.774923 A 45.84565 45.84565 0 0 0 105.0215 0.92914225 z M 105.01995 21.940263 A 24.725761 24.725761 0 0 1 129.74557 46.666402 A 24.725761 24.725761 0 0 1 105.01995 71.392025 A 24.725761 24.725761 0 0 1 80.294324 46.666402 A 24.725761 24.725761 0 0 1 105.01995 21.940263 z " />
  </g>
  <g
     inkscape:groupmode="layer"
     id="g6"
     inkscape:label="Layer 2 copy 1"
     transform="translate(19.044507,32.987373)">
    <path
       id="circle5"
       style="fill:#1b1166;stroke-width:1.01083"
       d="M 144.18429 68.764039 A 45.84565 45.84565 0 0 0 98.338509 114.6093 A 45.84565 45.84565 0 0 0 144.18429 160.45508 A 45.84565 45.84565 0 0 0 190.03007 114.6093 A 45.84565 45.84565 0 0 0 144.18429 68.764039 z M 144.18274 89.774643 A 24.726088 24.726088 0 0 1 168.90888 114.50078 A 24.726088 24.726088 0 0 1 144.18274 139.22692 A 24.726088 24.726088 0 0 1 119.4566 114.50078 A 24.726088 24.726088 0 0 1 144.18274 89.774643 z " />
  </g>
  <g
     inkscape:groupmode="layer"
     id="g4"
     inkscape:label="Layer 2 copy"
     transform="translate(-19.045493,32.987373)">
    <path
       id="circle3"
       style="fill:#1b1166;stroke-width:1.01083"
       d="M 65.856589 68.764039 A 45.84565 45.84565 0 0 0 20.011326 114.6093 A 45.84565 45.84565 0 0 0 65.856589 160.45508 A 45.84565 45.84565 0 0 0 111.70237 114.6093 A 45.84565 45.84565 0 0 0 65.856589 68.764039 z M 65.855039 89.774643 A 24.726088 24.726088 0 0 1 90.581178 114.50078 A 24.726088 24.726088 0 0 1 65.855039 139.22692 A 24.726088 24.726088 0 0 1 41.129416 114.50078 A 24.726088 24.726088 0 0 1 65.855039 89.774643 z " />
  </g>
</svg>
